<svg xmlns="http://www.w3.org/2000/svg" width="512" height="512" viewBox="0 0 512 512" style="fill: #6495ed"><title>ionicons-v5-j</title><ellipse cx="257" cy="256.5" rx="205" ry="205.5" fill="rgb(255, 255, 255)"/><path d="M 258.9 48 C 141.9 46.4 46.4 141.9 48 258.9 C 49.6 371.1 140.9 462.4 253.1 464 c 117 1.6 212.5 -93.9 210.9 -210.9 C 462.4 140.9 371.1 49.6 258.9 48 Z M 385.3 375.3 a 4 4 0 0 1 -6.1 -0.3 a 124.3 124.3 0 0 0 -32.4 -29.6 C 321.4 329 289.1 320 256 320 s -65.4 9 -90.8 25.3 a 124.2 124.2 0 0 0 -32.4 29.6 a 4 4 0 0 1 -6.1 0.3 A 175.3 175.3 0 0 1 80 259 C 78.4 161.7 158.2 80.2 255.6 80 S 432 158.8 432 256 A 175.3 175.3 0 0 1 385.3 375.3 Z"/>
    <path d="M 256 144 c -19.7 0 -37.5 7.4 -50.2 20.8 s -19 32 -17.6 51.9 C 191.1 256 221.5 288 256 288 s 64.8 -32 67.8 -71.2 c 1.5 -19.7 -4.8 -38.1 -17.7 -51.8 C 293.4 151.4 275.6 144 256 144 Z"/></svg>
